<svg xmlns="http://www.w3.org/2000/svg"  viewBox="0 0 48 48" width="48px" height="48px"><path d="M37.5,11C35.6,11,34,9.4,34,7.5S35.6,4,37.5,4S41,5.6,41,7.5S39.4,11,37.5,11z"/><path fill="none" stroke="#000" stroke-linecap="round" stroke-linejoin="round" stroke-width="3" d="M39.7,35.5c1.1-1.7,1.8-3.5,1.8-5.5c0-0.3,0-0.5-0.1-0.8c1.8-0.6,3.1-2.3,3.1-4.2c0-2.5-2-4.5-4.5-4.5	c-1.2,0-2.2,0.4-3,1.2c-3.2-2.5-7.8-4.2-13-4.2c-1.6,0-3.1,0.1-4.5,0.4"/><path fill="none" stroke="#000" stroke-linecap="round" stroke-linejoin="round" stroke-width="3" d="M13.5,20c-0.9,0.5-1.7,1-2.5,1.6c-0.8-0.7-1.8-1.2-3-1.2c-2.5,0-4.5,2-4.5,4.5c0,2,1.3,3.6,3.1,4.2	c0,0.3-0.1,0.5-0.1,0.8c0,6.9,7.8,12.5,17.5,12.5c3.2,0,6.2-0.6,8.8-1.7"/><polyline fill="none" stroke="#000" stroke-linejoin="round" stroke-width="3" points="24.5,17.5 27,5.5 37.5,7.5"/><circle cx="16.5" cy="27.5" r="3"/><circle cx="31.5" cy="27.5" r="3"/><path fill="none" stroke="#000" stroke-linecap="round" stroke-linejoin="round" stroke-width="3" d="M30.5,35.5c0,0-2,2-6.5,2s-6.5-2-6.5-2"/></svg>